<svg xmlns="http://www.w3.org/2000/svg" version="1.0" width="863.6666870117188" height="773" preserveAspectRatio="xMidYMid meet" style=""><rect id="backgroundrect" width="100%" height="100%" x="0" y="0" fill="none" stroke="none" class="" style=""/>


<g class="currentLayer" style=""><title>Layer 1</title><g transform="translate(0,1214) scale(0.10000000149011612,-0.10000000149011612) " fill="#ffffff" stroke="none" id="svg_1" class="selected" fill-opacity="1">
<path d="M8341.33349609375,12052.333251953125 c-380,-206 -1718,-1651 -2510,-2709 c-325,-435 -888,-1265 -1538,-2265 c-257,-396 -286,-516 -142,-583 c74,-34 165,-41 216,-17 c37,18 283,288 423,467 c38,47 99,125 138,174 c137,174 426,456 719,702 c446,373 945,692 1425,912 c73,33 137,59 142,58 c4,-2 -125,-192 -287,-423 c-441,-628 -504,-728 -583,-926 c-123,-309 -127,-665 -10,-851 c126,-197 409,-266 684,-167 c117,42 221,114 560,386 c365,292 590,485 609,521 c37,73 27,146 -22,159 c-45,11 -110,-35 -262,-187 c-140,-140 -418,-390 -531,-477 c-134,-103 -258,-154 -421,-174 c-224,-26 -297,32 -285,226 c10,165 105,376 302,670 c140,209 228,319 708,888 c209,247 385,460 393,475 c19,38 17,119 -5,167 c-26,56 -67,91 -135,115 c-145,50 -346,7 -678,-145 c-221,-101 -347,-174 -1672,-979 l-259,-157 l38,68 c38,69 234,347 354,503 c85,110 278,335 736,860 c340,390 1120,1289 1694,1955 c128,149 282,335 343,415 l110,145 l-6,48 c-7,60 -49,138 -86,160 c-43,26 -97,21 -162,-14 z" id="svg_2" fill="#ffffff" fill-opacity="1"/>
<path d="M1193.33349609375,11743.333251953125 c-11,-20 -12,-4810 -2,-6003 l4,-508 l22,3 l21,3 l5,3230 l5,3230 l3178,3 l3177,2 l0,30 l0,30 l-3200,0 c-3194,0 -3199,0 -3210,-20 z" id="svg_3" fill="#ffffff" fill-opacity="1"/>
<path d="M5204.33349609375,11333.333251953125 c-155,-41 -299,-130 -458,-283 c-211,-203 -393,-452 -621,-847 c-89,-154 -288,-546 -367,-720 c-26,-58 -55,-113 -64,-123 c-16,-16 -40,-17 -436,-7 c-231,6 -438,8 -460,4 c-60,-10 -108,-38 -154,-90 c-101,-115 -72,-204 87,-265 c132,-50 359,-79 614,-79 c87,0 158,-4 158,-9 c0,-15 -376,-921 -515,-1241 c-293,-671 -605,-1311 -825,-1690 c-97,-167 -249,-391 -353,-520 c-110,-136 -328,-347 -447,-432 c-220,-156 -464,-247 -709,-265 c-75,-5 -100,-2 -162,17 c-69,21 -80,28 -159,108 c-97,99 -145,180 -184,312 c-32,112 -36,120 -53,120 c-55,0 -89,-76 -79,-179 c27,-294 266,-584 532,-647 c153,-36 393,-2 595,85 c377,163 804,573 1151,1106 c404,620 971,1666 1545,2850 c101,209 192,389 203,399 c15,15 109,35 472,97 c590,102 728,129 933,185 c184,49 248,77 253,110 c6,40 -14,44 -184,34 c-202,-11 -1284,-25 -1284,-16 c0,13 344,656 453,846 c94,165 155,248 257,351 c144,145 271,222 419,255 c152,34 290,-3 358,-96 c18,-25 46,-60 63,-79 c28,-32 33,-33 80,-29 c68,7 104,41 130,126 c39,126 19,269 -47,343 c-52,57 -207,172 -288,213 c-146,74 -308,94 -454,56 z" id="svg_4" fill="#ffffff" fill-opacity="1"/>
<path d="M8231.33349609375,7921.333251953125 l-3,-3203 l-3280,-5 l-3280,-5 l0,-25 l0,-25 l3299,-3 c2430,-1 3302,1 3312,9 c12,10 14,536 14,3235 l0,3224 l-30,0 l-30,0 l-2,-3202 z" id="svg_5" fill="#ffffff" fill-opacity="1"/>
<path d="M1329.33349609375,4317.333251953125 c-9,-24 -7,-907 3,-922 c5,-8 21,-12 37,-10 l29,3 l5,205 l5,205 l233,3 l232,2 l0,34 c0,22 -6,36 -17,40 c-9,4 -107,6 -217,6 c-111,0 -209,-1 -219,0 c-16,0 -17,14 -15,183 l3,182 l282,3 c262,2 283,4 292,21 c6,10 7,27 4,39 c-5,22 -6,22 -328,22 c-285,0 -324,-2 -329,-16 z" id="svg_6" fill="#ffffff" fill-opacity="1"/>
<path d="M2748.33349609375,4321.333251953125 c-3,-7 -4,-220 -3,-473 l3,-460 l35,0 l35,0 l0,470 l0,470 l-33,3 c-20,2 -34,-2 -37,-10 z" id="svg_7" fill="#ffffff" fill-opacity="1"/>
<path d="M4449.33349609375,4318.333251953125 c-9,-25 -7,-908 3,-923 c5,-8 21,-12 37,-10 l29,3 l3,209 c1,134 6,214 13,223 c9,10 72,13 299,13 c227,0 290,-3 299,-13 c7,-9 12,-89 13,-223 l3,-209 l32,-3 c27,-3 33,1 38,20 c3,13 4,226 3,473 l-3,450 l-35,0 l-35,0 l-3,-200 c-1,-110 -6,-203 -11,-208 c-12,-12 -591,-11 -602,0 c-5,5 -10,98 -11,208 l-3,200 l-31,3 c-22,2 -33,-2 -38,-13 z" id="svg_8" fill="#ffffff" fill-opacity="1"/>
<path d="M7185.33349609375,3861.333251953125 l3,-473 l23,-3 c45,-7 52,12 52,130 l0,109 l48,51 l48,50 l145,-168 c132,-155 147,-169 180,-172 c41,-3 59,20 36,47 c-7,9 -40,48 -73,86 c-33,39 -98,115 -143,169 l-83,99 l106,102 c58,55 106,107 106,113 c0,8 -17,12 -46,12 c-46,0 -48,-1 -183,-132 l-136,-133 l-5,290 c-3,160 -7,291 -8,293 c-1,1 -18,2 -37,2 l-35,0 l2,-472 z" id="svg_9" fill="#ffffff" fill-opacity="1"/>
<path d="M3020.33349609375,4235.333251953125 c-23,-25 -21,-68 3,-92 c41,-41 100,-12 100,49 c0,20 -5,42 -12,49 c-18,18 -73,14 -91,-6 z" id="svg_10" fill="#ffffff" fill-opacity="1"/>
<path d="M2156.33349609375,4007.333251953125 c-63,-23 -128,-86 -164,-160 c-27,-55 -32,-77 -33,-142 c-2,-191 113,-319 295,-330 c99,-6 162,14 228,74 c29,26 62,69 78,102 c24,50 28,68 28,147 c-1,104 -19,157 -81,225 c-59,66 -123,93 -224,97 c-58,2 -98,-2 -127,-13 zm224,-89 c177,-89 177,-351 0,-440 c-120,-59 -254,-13 -320,110 c-16,30 -21,58 -21,110 c0,80 20,129 76,182 c71,68 174,83 265,38 z" id="svg_11" fill="#ffffff" fill-opacity="1"/>
<path d="M3457.33349609375,4002.333251953125 c-74,-28 -128,-79 -166,-157 c-29,-59 -33,-76 -32,-147 c1,-135 62,-237 176,-295 c50,-24 74,-30 128,-30 c99,0 159,22 223,80 c77,70 102,129 102,245 c0,79 -4,97 -28,147 c-34,70 -110,140 -174,162 c-63,22 -166,20 -229,-5 zm242,-95 c30,-18 60,-48 79,-78 c27,-44 30,-58 30,-131 c0,-73 -3,-87 -30,-131 c-83,-134 -268,-154 -374,-39 c-38,42 -71,120 -71,170 c0,84 68,191 145,227 c62,29 158,21 221,-18 z" id="svg_12" fill="#ffffff" fill-opacity="1"/>
<path d="M5603.33349609375,4014.333251953125 c-138,-42 -220,-160 -220,-316 c0,-103 28,-174 94,-240 c60,-61 121,-85 211,-85 c89,0 147,23 195,77 l40,46 l0,-57 l0,-57 l33,3 l32,3 l0,310 l0,310 l-30,0 c-29,0 -30,-1 -33,-54 l-3,-53 l-37,42 c-49,58 -100,80 -187,79 c-38,0 -81,-4 -95,-8 zm181,-92 c43,-22 96,-80 116,-128 c22,-51 20,-148 -4,-202 c-40,-90 -115,-140 -208,-140 c-65,0 -118,25 -167,79 c-44,48 -62,100 -61,172 c0,65 19,113 63,164 c72,81 168,101 261,55 z" id="svg_13" fill="#ffffff" fill-opacity="1"/>
<path d="M7923.33349609375,4012.333251953125 c-90,-38 -132,-160 -81,-242 c21,-35 86,-75 156,-97 c64,-20 133,-58 145,-79 c41,-78 -49,-162 -154,-145 c-27,4 -54,20 -87,51 c-50,47 -82,54 -103,21 c-15,-25 37,-95 93,-125 c35,-18 60,-23 120,-23 c89,0 143,21 184,69 c34,40 41,68 35,133 c-5,44 -11,57 -44,88 c-23,21 -73,50 -119,68 c-122,49 -149,65 -164,96 c-27,57 35,126 114,126 c36,0 99,-34 119,-64 c19,-29 57,-34 76,-11 c20,24 -10,78 -61,112 c-37,24 -54,28 -123,30 c-45,2 -92,-2 -106,-8 z" id="svg_14" fill="#ffffff" fill-opacity="1"/>
<path d="M3035.33349609375,4001.333251953125 c-14,-14 -18,-584 -3,-606 c5,-8 21,-12 37,-10 l29,3 l0,310 l0,310 l-25,3 c-14,2 -31,-3 -38,-10 z" id="svg_15" fill="#ffffff" fill-opacity="1"/>
<path d="M6133.33349609375,3994.333251953125 c0,-19 200,-512 237,-584 c12,-23 20,-28 45,-25 c29,3 33,9 96,161 c36,86 68,157 72,157 c4,0 33,-62 65,-137 c31,-76 63,-148 71,-160 c16,-25 56,-31 71,-10 c21,26 254,598 248,607 c-3,6 -21,10 -39,10 c-38,0 -33,10 -166,-312 c-41,-98 -77,-175 -80,-170 c-4,4 -13,23 -20,42 c-8,19 -33,82 -58,139 c-49,117 -49,122 1,232 c14,31 23,60 20,63 c-11,11 -70,6 -80,-6 c-6,-7 -52,-114 -102,-238 c-51,-124 -96,-228 -99,-232 c-4,-4 -52,101 -107,233 c-68,162 -105,239 -115,239 c-8,0 -25,3 -37,6 c-19,5 -23,2 -23,-15 z" id="svg_16" fill="#ffffff" fill-opacity="1"/>
</g></g></svg>